<?xml version="1.0" encoding="UTF-8"?> <svg xmlns="http://www.w3.org/2000/svg" xmlns:xlink="http://www.w3.org/1999/xlink" id="Layer_1" data-name="Layer 1" viewBox="0 0 395.06 86.18"><defs><style>.cls-1{fill:#eb2127;}.cls-2{fill:#085ca8;}.cls-3{fill:#ed1c24;}.cls-4{fill:url(#radial-gradient);}.cls-5{fill:url(#radial-gradient-2);}.cls-6{fill:#fdfeff;}.cls-7{opacity:0.65;fill:url(#linear-gradient);}.cls-8{fill:#fff;}</style><radialGradient id="radial-gradient" cx="0.76" cy="60.17" r="35.61" gradientTransform="translate(45.34) scale(0.96 1)" gradientUnits="userSpaceOnUse"><stop offset="0" stop-color="#005baa"></stop><stop offset="0.3" stop-color="#0059a7"></stop><stop offset="0.52" stop-color="#00539e"></stop><stop offset="0.72" stop-color="#00488d"></stop><stop offset="0.9" stop-color="#003977"></stop><stop offset="1" stop-color="#002f67"></stop></radialGradient><radialGradient id="radial-gradient-2" cx="-28.67" cy="60.47" r="46.02" gradientTransform="translate(45.34) scale(0.96 1)" gradientUnits="userSpaceOnUse"><stop offset="0" stop-color="#002f67"></stop><stop offset="1" stop-color="#005baa"></stop></radialGradient><linearGradient id="linear-gradient" x1="56.24" y1="69.91" x2="61.89" y2="70.81" gradientUnits="userSpaceOnUse"><stop offset="0" stop-color="#fff"></stop><stop offset="0.2" stop-color="#f4f4f5"></stop><stop offset="0.55" stop-color="#d6d7d9"></stop><stop offset="1" stop-color="#a7a9ac"></stop></linearGradient></defs><path class="cls-1" d="M295.8,93.34c2.79,0,4.62,1.32,5.19,3.5h-2a3.05,3.05,0,0,0-3.18-2c-2.05,0-3.57,1.34-3.57,3.87s1.52,3.91,3.57,3.91a3,3,0,0,0,3.18-2h2c-.57,2.06-2.4,3.49-5.19,3.49a5.35,5.35,0,1,1,0-10.69Z" transform="translate(-5.97 -18.74)"></path><path class="cls-1" d="M307.4,103.86h-1.87V93.51h1.87v1.68A3.84,3.84,0,0,1,311,93.32V95.1h-.49c-1.79,0-3.14.74-3.14,3.13Z" transform="translate(-5.97 -18.74)"></path><path class="cls-1" d="M320.1,104c-3.2,0-5.56-2.07-5.56-5.36s2.28-5.33,5.56-5.33,5.4,2.12,5.4,5a8.81,8.81,0,0,1-.06,1h-9a3.41,3.41,0,0,0,3.65,3.25,3.09,3.09,0,0,0,3.16-1.91h2C324.7,102.56,322.89,104,320.1,104Zm-3.63-6.1h7.1c0-2-1.62-3.13-3.55-3.13A3.36,3.36,0,0,0,316.47,97.93Z" transform="translate(-5.97 -18.74)"></path><path class="cls-1" d="M334.65,93.34a4.76,4.76,0,0,1,4.19,2.06V93.51h1.89v10.35h-1.89v-1.92a4.81,4.81,0,0,1-4.21,2.09,5.17,5.17,0,0,1-5.31-5.38A5.1,5.1,0,0,1,334.65,93.34Zm.37,1.49a3.63,3.63,0,0,0-3.79,3.82A3.81,3.81,0,1,0,335,94.83Z" transform="translate(-5.97 -18.74)"></path><path class="cls-1" d="M346.35,94.93h-1.46V93.51h1.46V90.9h1.87v2.61h2.93v1.42h-2.93V101c0,1,.41,1.38,1.56,1.38h1.37v1.45h-1.68c-2,0-3.12-.75-3.12-2.83Z" transform="translate(-5.97 -18.74)"></path><path class="cls-1" d="M355.16,90.66a1.25,1.25,0,1,1,1.27,1.17A1.2,1.2,0,0,1,355.16,90.66Zm.3,2.85h1.87v10.35h-1.87Z" transform="translate(-5.97 -18.74)"></path><path class="cls-1" d="M367.47,104c-3.18,0-5.6-2.07-5.6-5.36s2.5-5.33,5.68-5.33,5.69,2.06,5.69,5.33S370.67,104,367.47,104Zm0-1.51a3.66,3.66,0,0,0,3.86-3.85,3.62,3.62,0,0,0-3.8-3.84,3.85,3.85,0,0,0-.06,7.69Z" transform="translate(-5.97 -18.74)"></path><path class="cls-1" d="M386,98a2.89,2.89,0,0,0-3.14-3.2,3,3,0,0,0-3.22,3.33v5.72h-1.87V93.51h1.87V95a4.3,4.3,0,0,1,3.61-1.66c2.61,0,4.6,1.48,4.6,4.44v6.1H386Z" transform="translate(-5.97 -18.74)"></path><path class="cls-1" d="M396.92,104c-2.62,0-4.47-1.32-4.59-3.21h1.93c.1,1,1.06,1.76,2.64,1.76s2.3-.68,2.3-1.53c0-2.31-6.65-1-6.65-4.82,0-1.59,1.62-2.89,4.13-2.89s4.12,1.23,4.25,3.25h-1.87c-.08-1-.95-1.79-2.44-1.79s-2.2.6-2.2,1.43c0,2.46,6.53,1.12,6.61,4.82C401,102.75,399.41,104,396.92,104Z" transform="translate(-5.97 -18.74)"></path><path class="cls-2" d="M98.33,33.93H119q7.81,0,12.31,3.8a12.09,12.09,0,0,1,4.49,9.64q0,8.55-9.93,11.47a12.49,12.49,0,0,1,8.07,4.34,12.66,12.66,0,0,1,3,8.37,11.85,11.85,0,0,1-4.53,9.67q-4.53,3.69-12.27,3.69H98.33Zm10.3,7.89V55h9.28a8.08,8.08,0,0,0,5.44-1.72,6,6,0,0,0,2-4.85,6.13,6.13,0,0,0-2-4.89,8,8,0,0,0-5.44-1.76Zm0,35.2H119a7.94,7.94,0,0,0,5.51-1.86,7.39,7.39,0,0,0,0-10.33,8,8,0,0,0-5.55-1.9h-10.3Z" transform="translate(-5.97 -18.74)"></path><path class="cls-2" d="M143,84.91V36.81L153.26,30V84.91Z" transform="translate(-5.97 -18.74)"></path><path class="cls-2" d="M186.27,50.39l10.3-6.76V84.91h-10.3V78.78q-3.87,6.64-12.63,6.64a14.91,14.91,0,0,1-11.25-4.56Q158,76.3,158,68.19V50.39l10.22-6.76v23.1c0,3.16.8,5.6,2.41,7.3a8.59,8.59,0,0,0,6.57,2.56A8.69,8.69,0,0,0,183.82,74c1.63-1.7,2.45-4.14,2.45-7.3Z" transform="translate(-5.97 -18.74)"></path><path class="cls-2" d="M220.23,85.5q-8.83,0-14.39-5.74t-5.55-15.15q0-9.42,5.59-15.08t14.46-5.66q8.88,0,14.57,5.51t5.7,14.72a24.35,24.35,0,0,1-.3,3.94h-29.5a9.63,9.63,0,0,0,2.92,6.36,9.12,9.12,0,0,0,6.5,2.41,8.53,8.53,0,0,0,7.89-4.39h11.1a17.79,17.79,0,0,1-6.79,9.43A20.27,20.27,0,0,1,220.23,85.5ZM227,55a9.65,9.65,0,0,0-6.61-2.41A9.12,9.12,0,0,0,213.91,55a10.2,10.2,0,0,0-3.1,6.43h19.13A8.82,8.82,0,0,0,227,55Z" transform="translate(-5.97 -18.74)"></path><path class="cls-2" d="M248.38,79.62q-5.43-5.88-5.44-15t5.41-14.94a17.93,17.93,0,0,1,13.73-5.8,14.18,14.18,0,0,1,12.71,6.86v-.34L285,43.63V85.2q0,8.7-5.11,14.21t-14.35,5.51q-9.24,0-14.68-3.83a14.49,14.49,0,0,1-6.17-10.92h10.08a7.86,7.86,0,0,0,3.65,4.27A13.3,13.3,0,0,0,265.22,96a9.34,9.34,0,0,0,6.83-2.7c1.82-1.8,2.74-4.5,2.74-8.11V78.12Q270.19,85.5,262,85.5A17.8,17.8,0,0,1,248.38,79.62Zm23.19-6.21q3.23-3.18,3.22-8.73T271.57,56a10.5,10.5,0,0,0-15,0q-3.17,3.13-3.17,8.69t3.21,8.76a10.35,10.35,0,0,0,15,0Z" transform="translate(-5.97 -18.74)"></path><path class="cls-2" d="M318,50.39l10.3-6.76V84.91H318V78.78q-3.87,6.64-12.63,6.64a14.91,14.91,0,0,1-11.25-4.56q-4.38-4.56-4.38-12.67V50.39L300,43.63v23.1c0,3.16.81,5.6,2.41,7.3A8.59,8.59,0,0,0,309,76.59,8.71,8.71,0,0,0,315.58,74c1.63-1.7,2.44-4.14,2.44-7.3Z" transform="translate(-5.97 -18.74)"></path><path class="cls-2" d="M343.73,43.63v6.88q3.87-6.65,12.56-6.64A15.88,15.88,0,0,1,364.51,46a14.22,14.22,0,0,1,5.59,6.06,15.74,15.74,0,0,1,5.8-6,16,16,0,0,1,8.29-2.19q7.23,0,11.65,4.53t4.42,12.7V84.91H390V62.56c0-3.16-.81-5.58-2.41-7.26a8.68,8.68,0,0,0-6.58-2.52,8.79,8.79,0,0,0-6.61,2.52Q372,57.82,372,62.56V84.91H361.77V62.56q0-4.74-2.41-7.26a8.67,8.67,0,0,0-6.57-2.52,8.78,8.78,0,0,0-6.61,2.52q-2.44,2.52-2.45,7.26V84.91h-10.3V50.39Z" transform="translate(-5.97 -18.74)"></path><path class="cls-3" d="M79.21,33.07c-6-4.14-22.61-11.39-25.42-12.56A23,23,0,0,0,46,18.74a23.09,23.09,0,0,0-7.65,1.77C35.55,21.68,18.91,28.94,13,33.07c-6.14,4.25-7,9.09-7,13.68V73.58c0,4.6.84,9.43,7,13.68,5.9,4.09,22.59,11.39,25.41,12.56A22.84,22.84,0,0,0,46,101.59h.14a22.73,22.73,0,0,0,7.64-1.77c2.82-1.16,19.45-8.42,25.42-12.56,6.14-4.25,7-9.08,7-13.68V46.75C86.19,42.16,85.35,37.32,79.21,33.07Zm4,13.68V73.58c0,4.46-1,7.88-5.67,11.15C72.21,88.42,56.62,95.36,52.68,97a20.1,20.1,0,0,1-6.58,1.55A20.09,20.09,0,0,1,39.47,97C35.54,95.36,20,88.43,14.61,84.73,9.88,81.46,8.94,78,8.94,73.58V46.75c0-4.45.94-7.87,5.67-11.14C20,31.89,35.54,25,39.47,23.35A20.27,20.27,0,0,1,46,21.79a19.92,19.92,0,0,1,6.65,1.56C56.61,25,72.19,31.89,77.55,35.61,82.27,38.88,83.22,42.29,83.22,46.75Z" transform="translate(-5.97 -18.74)"></path><path class="cls-4" d="M74.8,37.2c-4.89-3.38-18.8-9.56-22.35-11a19.3,19.3,0,0,0-6.37-1.48h0a19.18,19.18,0,0,0-6.37,1.48c-3.55,1.47-17.47,7.65-22.35,11s-5.63,7.06-5.63,11V72.1c0,4,.74,7.65,5.63,11s18.8,9.56,22.35,11a19.43,19.43,0,0,0,6.37,1.48h0a19.55,19.55,0,0,0,6.37-1.48c3.55-1.48,17.46-7.65,22.35-11s5.63-7.06,5.63-11V48.24C80.43,44.26,79.69,40.59,74.8,37.2Z" transform="translate(-5.97 -18.74)"></path><path class="cls-5" d="M64.89,48.81h9c1.17,0,1.26-.93,1.26-4.19C70,40.88,49,30.28,49,30.28s-2.32-1.34-6.28.62C38.49,33,21.2,41.54,19.51,42.75s-1.93,1.87-1.93,4.94v23c0,2.06.25,3.17,2.1,4S41.4,86.31,43.84,87.34s3.12.93,5.64-.56,22.53-11.5,24-12.53,1.64-2.86,1.64-4.73V57.86a3.71,3.71,0,0,0-3.79-3.64H40c-3.54,0-4.63,2.06-4.63,4.2s-.09,4.71,4.25,4.71H61c4.68,0,5,.61,5,3.31S53.81,75.36,51,76.66s-4,2.43-9.6-.46A108.18,108.18,0,0,1,30,69.61c-1-.84-2.86-1-2.86-4.19V51.14c0-2,1.35-2.42,3.54-3.73s10.69-5.35,13-6.56,3.7-.65,6.73.84Z" transform="translate(-5.97 -18.74)"></path><path class="cls-6" d="M65.29,50.48H74c1.13,0,1.21-.9,1.21-4C70.22,42.86,50,32.66,50,32.66s-2.23-1.28-6,.6c-4.09,2-20.72,10.23-22.34,11.39s-1.86,1.8-1.86,4.76V71.56c0,2,.24,3,2,3.85S42.7,86.53,45.05,87.52s3,.9,5.42-.54,21.66-11,23.12-12,1.57-2.75,1.57-4.55V59.18a3.56,3.56,0,0,0-3.64-3.5H41.33c-3.4,0-4.45,2-4.45,4s-.09,4.53,4.08,4.53h20.6c4.51,0,4.85.58,4.85,3.18S54.63,76,52,77.26s-3.88,2.33-9.22-.45a101.45,101.45,0,0,1-11-6.33c-1-.8-2.75-1-2.75-4V52.72c0-2,1.29-2.33,3.39-3.58S42.7,44,45,42.83s3.56-.63,6.48.8Z" transform="translate(-5.97 -18.74)"></path><path class="cls-7" d="M71.52,55.68H56.69l-.17,8.57h5c4.51,0,4.85.58,4.85,3.18,0,1.95-6.6,5.78-11,8.12L52.32,86c5.49-2.89,20-10.18,21.27-11,1.46-1,1.57-2.75,1.57-4.55V59.18A3.56,3.56,0,0,0,71.52,55.68Z" transform="translate(-5.97 -18.74)"></path><path class="cls-8" d="M71.59,55.68H41.4c-3.4,0-4.45,2-4.45,4s-.08,4.53,4.09,4.53h20.6c4.5,0,4.84.58,4.84,3.18a1.06,1.06,0,0,1-.06.34c.43,3.46-2.08,8.7-4.71,13.41,5.55-2.83,11.19-5.72,11.95-6.24,1.46-1,1.58-2.75,1.58-4.55V59.18A3.57,3.57,0,0,0,71.59,55.68Z" transform="translate(-5.97 -18.74)"></path></svg> 