<?xml version="1.0" encoding="UTF-8"?> <svg xmlns="http://www.w3.org/2000/svg" xmlns:xlink="http://www.w3.org/1999/xlink" version="1.1" id="Layer_1" x="0px" y="0px" viewBox="0 0 368.5 113.4" style="enable-background:new 0 0 368.5 113.4;" xml:space="preserve"> <style type="text/css"> .st0{fill:#F05A28;} .st1{fill:#231F20;} </style> <path class="st0" d="M78.4,68c-1.7-0.1-4.4-0.4-6.1-0.6C66.1,66.8,60,66,53.8,65.1c-0.4-0.1-0.9-0.1-1.4-0.2 c3.9-2.9,7.8-5.9,11.4-9.1c4-3.7,8.6-8,9.9-13.6c2.3-9.9-7.5-15.3-15.9-17.7c-5.7-2.8-12.8-5-18.7-2.5c-5.9,2.7-7.4,9.3-7.3,15.2 c0,4.4,0.6,8.7,1.3,13c0.7,3.9,1.5,7.8,2.4,11.7c-9.5-2.1-19.1-5-23.2-9.1c-7.5-7.7,3.2-17.8,9.5-22.3c-6.2,3.3-13.9,8.8-15,16.2 c-0.8,6.4,3.9,11.2,9,14.2c3.7,2.3,7.7,4.1,11.7,5.8c0.7,0.3,1.3,0.5,2,0.8c-4.4,2-8.9,3.9-13.4,5.7c-2,0.8-4.6,1.8-6.5,2.6 c-3.3,1.8-4.5,5.9-2.7,9.1s5.9,4.5,9.1,2.7c1.6-0.9,4-2.3,5.6-3.2c5.5-3.2,11-6.5,16.4-9.9c0.3-0.2,0.5-0.3,0.8-0.5 c1.2,4.4,2.5,8.7,3.9,13c0.9,3,2,6.1,3,9.1c0.5,1.3,0.8,2.6,1.4,3.9c1.7,3.3,5.8,4.6,9.1,2.9c3.3-1.7,4.6-5.8,2.9-9.1 c-0.8-1.5-2-4-2.7-5.5c-2.3-4.7-4.5-9.4-6.6-14.2c4.7,1.4,9.5,2.7,14.3,4c3,0.8,6.2,1.6,9.3,2.3c1.3,0.3,2.7,0.7,4.1,0.9 c3.7,0.3,6.9-2.5,7.3-6.2C84.9,71.6,82.1,68.3,78.4,68z M37,29.7c2.2-8.8,12.7-7.5,20.2-5.1c7.1,3,16.4,9,12.7,17 c-3,6.4-15.6,13.6-26,18.8C39.8,49.9,35.4,36.7,37,29.7z"></path> <g> <path class="st0" d="M133.3,53.2h-25.9c0.4,2.3,1.4,4.1,3,5.5c1.6,1.4,3.7,2,6.2,2c3,0,5.6-1.1,7.8-3.2l6.8,3.2 c-1.7,2.4-3.7,4.2-6.1,5.3c-2.4,1.2-5.2,1.7-8.4,1.7c-5,0-9.2-1.6-12.3-4.8c-3.2-3.2-4.8-7.2-4.8-12c0-4.9,1.6-9,4.7-12.2 s7.1-4.9,11.9-4.9c5.1,0,9.2,1.6,12.4,4.9s4.8,7.5,4.8,12.9L133.3,53.2z M125.3,46.9c-0.5-1.8-1.6-3.3-3.2-4.4 c-1.6-1.1-3.4-1.7-5.5-1.7c-2.3,0-4.2,0.6-5.9,1.9c-1.1,0.8-2.1,2.2-3,4.2H125.3z"></path> <path class="st0" d="M145.5,34.8v3.6c1.5-1.5,3-2.6,4.7-3.3c1.7-0.7,3.5-1.1,5.4-1.1c4.2,0,7.8,1.6,10.7,4.8 c2.9,3.2,4.4,7.2,4.4,12.2c0,4.8-1.5,8.8-4.6,12s-6.6,4.8-10.8,4.8c-1.9,0-3.6-0.3-5.2-1s-3.2-1.7-4.8-3.2V82h-8V34.8H145.5z M154,41.4c-2.5,0-4.7,0.9-6.3,2.6c-1.7,1.7-2.5,4-2.5,6.8c0,2.9,0.8,5.2,2.5,6.9c1.7,1.8,3.8,2.6,6.3,2.6c2.5,0,4.5-0.9,6.2-2.7 c1.7-1.8,2.5-4.1,2.5-6.9c0-2.8-0.8-5-2.5-6.8C158.6,42.3,156.5,41.4,154,41.4z"></path> <path class="st0" d="M178.2,21.6c1.4,0,2.6,0.5,3.6,1.5c1,1,1.5,2.3,1.5,3.7c0,1.4-0.5,2.7-1.5,3.7c-1,1-2.2,1.5-3.6,1.5 c-1.4,0-2.7-0.5-3.7-1.6c-1-1-1.5-2.3-1.5-3.8c0-1.4,0.5-2.6,1.5-3.6S176.8,21.6,178.2,21.6z M174.1,34.8h8.1V67h-8.1V34.8z"></path> <path class="st0" d="M218.6,41.3l-6.7,3.7c-1.3-1.3-2.5-2.2-3.7-2.8c-1.2-0.5-2.7-0.8-4.3-0.8c-3,0-5.5,0.9-7.3,2.7 s-2.8,4.1-2.8,6.9c0,2.7,0.9,5,2.7,6.7s4.2,2.6,7.1,2.6c3.6,0,6.4-1.2,8.4-3.7l6.4,4.4c-3.5,4.5-8.3,6.7-14.6,6.7 c-5.7,0-10.1-1.7-13.3-5c-3.2-3.4-4.8-7.3-4.8-11.8c0-3.1,0.8-6,2.3-8.6c1.6-2.6,3.7-4.7,6.5-6.2c2.8-1.5,5.9-2.2,9.4-2.2 c3.2,0,6.1,0.6,8.6,1.9C214.9,37.2,217,39,218.6,41.3z"></path> <path class="st0" d="M255.7,53.2h-25.9c0.4,2.3,1.4,4.1,3,5.5c1.6,1.4,3.7,2,6.2,2c3,0,5.6-1.1,7.8-3.2l6.8,3.2 c-1.7,2.4-3.7,4.2-6.1,5.3c-2.4,1.2-5.2,1.7-8.4,1.7c-5,0-9.2-1.6-12.3-4.8c-3.2-3.2-4.8-7.2-4.8-12c0-4.9,1.6-9,4.7-12.2 s7.1-4.9,11.9-4.9c5.1,0,9.2,1.6,12.4,4.9s4.8,7.5,4.8,12.9L255.7,53.2z M247.7,46.9c-0.5-1.8-1.6-3.3-3.2-4.4 c-1.6-1.1-3.4-1.7-5.5-1.7c-2.3,0-4.2,0.6-5.9,1.9c-1.1,0.8-2.1,2.2-3,4.2H247.7z"></path> <path class="st0" d="M259.9,34.8h8.1v3.3c1.8-1.5,3.5-2.6,5-3.2c1.5-0.6,3-0.9,4.6-0.9c3.2,0,5.9,1.1,8.1,3.3 c1.9,1.9,2.8,4.7,2.8,8.4V67h-8V52.9c0-3.8-0.2-6.4-0.5-7.7c-0.3-1.3-0.9-2.2-1.8-2.9c-0.9-0.7-1.9-1-3.2-1c-1.6,0-3,0.5-4.2,1.6 c-1.2,1.1-2,2.6-2.4,4.5c-0.2,1-0.4,3.2-0.4,6.5V67h-8.1V34.8z"></path> <path class="st0" d="M294.8,22.9h8.1v11.9h4.8v7h-4.8V67h-8.1V41.8h-4.1v-7h4.1V22.9z"></path> <path class="st0" d="M341.8,53.2h-25.9c0.4,2.3,1.4,4.1,3,5.5c1.6,1.4,3.7,2,6.2,2c3,0,5.6-1.1,7.8-3.2l6.8,3.2 c-1.7,2.4-3.7,4.2-6.1,5.3c-2.4,1.2-5.2,1.7-8.4,1.7c-5,0-9.2-1.6-12.3-4.8c-3.2-3.2-4.8-7.2-4.8-12c0-4.9,1.6-9,4.7-12.2 s7.1-4.9,11.9-4.9c5.1,0,9.2,1.6,12.4,4.9s4.8,7.5,4.8,12.9L341.8,53.2z M333.7,46.9c-0.5-1.8-1.6-3.3-3.2-4.4 c-1.6-1.1-3.4-1.7-5.5-1.7c-2.3,0-4.2,0.6-5.9,1.9c-1.1,0.8-2.1,2.2-3,4.2H333.7z"></path> <path class="st0" d="M344,34.8h6.9v4.1c0.7-1.6,1.7-2.8,3-3.6c1.2-0.8,2.6-1.2,4.1-1.2c1,0,2.1,0.3,3.3,0.8l-2.5,7 c-0.9-0.5-1.7-0.7-2.3-0.7c-1.2,0-2.3,0.8-3.2,2.3c-0.9,1.5-1.3,4.6-1.3,9.1l0,1.6v13h-8V34.8z"></path> </g> <g> <path class="st1" d="M160,79.9h-4.5l-0.9,2.1h-1.2l3.8-8.4h1.2l3.8,8.4H161L160,79.9z M159.6,78.9l-1.8-4.1l-1.8,4.1H159.6z"></path> <path class="st1" d="M171.7,79.7c0,1.4-1.1,2.3-3.2,2.3h-4v-8.4h3.8c1.9,0,3,0.8,3,2.2c0,0.9-0.5,1.5-1.1,1.9 C171,77.9,171.7,78.6,171.7,79.7z M165.6,74.6v2.7h2.5c1.2,0,1.9-0.5,1.9-1.3s-0.7-1.3-1.9-1.3H165.6z M170.4,79.6 c0-1-0.7-1.4-2.1-1.4h-2.8V81h2.8C169.7,81,170.4,80.6,170.4,79.6z"></path> <path class="st1" d="M180.1,82l-1.8-2.6c-0.2,0-0.3,0-0.5,0h-2.1V82h-1.2v-8.4h3.3c2.2,0,3.5,1.1,3.5,2.9c0,1.3-0.7,2.2-1.8,2.7 l2,2.8H180.1z M180.1,76.5c0-1.2-0.8-1.9-2.3-1.9h-2v3.8h2C179.2,78.4,180.1,77.7,180.1,76.5z"></path> <path class="st1" d="M183.5,77.8c0-2.5,1.9-4.3,4.5-4.3c2.6,0,4.5,1.8,4.5,4.3s-1.9,4.3-4.5,4.3C185.4,82.1,183.5,80.3,183.5,77.8z M191.2,77.8c0-1.9-1.4-3.2-3.3-3.2c-1.9,0-3.3,1.4-3.3,3.2c0,1.9,1.4,3.2,3.3,3.2C189.8,81,191.2,79.7,191.2,77.8z"></path> <path class="st1" d="M200.4,79.9H196L195,82h-1.2l3.8-8.4h1.2l3.8,8.4h-1.3L200.4,79.9z M200,78.9l-1.8-4.1l-1.8,4.1H200z"></path> <path class="st1" d="M204.8,73.6h3.5c2.7,0,4.5,1.7,4.5,4.2c0,2.5-1.8,4.2-4.5,4.2h-3.5V73.6z M208.3,81c2.1,0,3.4-1.3,3.4-3.2 s-1.3-3.2-3.4-3.2H206V81H208.3z"></path> <path class="st1" d="M219.1,81l0.4-0.9c0.6,0.6,1.7,1,2.8,1c1.5,0,2.1-0.6,2.1-1.3c0-2.1-5.1-0.8-5.1-3.9c0-1.3,1-2.4,3.2-2.4 c1,0,2,0.3,2.7,0.7l-0.4,1c-0.7-0.5-1.6-0.7-2.3-0.7c-1.4,0-2,0.6-2,1.3c0,2.1,5.1,0.8,5.1,3.8c0,1.3-1,2.4-3.2,2.4 C221,82.1,219.8,81.7,219.1,81z"></path> <path class="st1" d="M234.4,81v1h-6.1v-8.4h5.9v1h-4.7v2.6h4.2v1h-4.2V81H234.4z"></path> <path class="st1" d="M242.9,82l-1.8-2.6c-0.2,0-0.3,0-0.5,0h-2.1V82h-1.2v-8.4h3.3c2.2,0,3.5,1.1,3.5,2.9c0,1.3-0.7,2.2-1.8,2.7 l2,2.8H242.9z M242.9,76.5c0-1.2-0.8-1.9-2.3-1.9h-2v3.8h2C242.1,78.4,242.9,77.7,242.9,76.5z"></path> <path class="st1" d="M254.3,73.6l-3.7,8.4h-1.2l-3.7-8.4h1.3l3,6.9l3-6.9H254.3z"></path> <path class="st1" d="M256.3,73.6h1.2V82h-1.2V73.6z"></path> <path class="st1" d="M260.3,77.8c0-2.5,1.9-4.3,4.4-4.3c1.3,0,2.4,0.4,3.2,1.3l-0.8,0.8c-0.6-0.7-1.4-1-2.4-1 c-1.9,0-3.3,1.4-3.3,3.2c0,1.9,1.4,3.2,3.3,3.2c0.9,0,1.7-0.3,2.4-1l0.8,0.8c-0.8,0.9-1.9,1.3-3.2,1.3 C262.2,82.1,260.3,80.3,260.3,77.8z"></path> <path class="st1" d="M276.7,81v1h-6.1v-8.4h5.9v1h-4.7v2.6h4.2v1h-4.2V81H276.7z"></path> <path class="st1" d="M278.9,81l0.4-0.9c0.6,0.6,1.7,1,2.8,1c1.5,0,2.1-0.6,2.1-1.3c0-2.1-5.1-0.8-5.1-3.9c0-1.3,1-2.4,3.2-2.4 c1,0,2,0.3,2.7,0.7l-0.4,1c-0.7-0.5-1.6-0.7-2.3-0.7c-1.4,0-2,0.6-2,1.3c0,2.1,5.1,0.8,5.1,3.8c0,1.3-1,2.4-3.2,2.4 C280.8,82.1,279.5,81.7,278.9,81z"></path> <path class="st1" d="M299,76.5c0,1.8-1.3,2.9-3.5,2.9h-2.1V82h-1.2v-8.4h3.3C297.7,73.6,299,74.7,299,76.5z M297.8,76.5 c0-1.2-0.8-1.9-2.3-1.9h-2v3.8h2C297,78.4,297.8,77.7,297.8,76.5z"></path> <path class="st1" d="M308.9,73.6l-3.7,8.4h-1.2l-3.7-8.4h1.3l3,6.9l3-6.9H308.9z"></path> <path class="st1" d="M312.7,74.7h-2.9v-1h6.9v1h-2.9V82h-1.2V74.7z"></path> <path class="st1" d="M318,81.2c0-0.5,0.4-0.8,0.8-0.8c0.4,0,0.8,0.3,0.8,0.8s-0.4,0.8-0.8,0.8C318.3,82.1,318,81.7,318,81.2z"></path> <path class="st1" d="M326.5,73.6h1.2V81h4.5v1h-5.7V73.6z"></path> <path class="st1" d="M335.5,74.7h-2.9v-1h6.9v1h-2.9V82h-1.2V74.7z"></path> <path class="st1" d="M341.9,73.6h3.5c2.7,0,4.5,1.7,4.5,4.2c0,2.5-1.8,4.2-4.5,4.2h-3.5V73.6z M345.3,81c2.1,0,3.4-1.3,3.4-3.2 s-1.3-3.2-3.4-3.2h-2.3V81H345.3z"></path> <path class="st1" d="M351.8,81.2c0-0.5,0.4-0.8,0.8-0.8c0.4,0,0.8,0.3,0.8,0.8s-0.4,0.8-0.8,0.8C352.1,82.1,351.8,81.7,351.8,81.2z "></path> </g> <circle class="st0" cx="62.1" cy="14" r="7"></circle> </svg> 